<?xml version="1.0" encoding="UTF-8"?>
<svg id="Layer_2" data-name="Layer 2" xmlns="http://www.w3.org/2000/svg" viewBox="0 0 550 550">
  <defs>
    <style>
      .cls-1 {
        fill: #3d190a;
      }

      .cls-2 {
        fill: #fbeee7;
      }
    </style>
  </defs>
  <g id="Layer_1-2" data-name="Layer 1">
    <rect class="cls-1" width="550" height="550" rx="150" ry="150"/>
    <g>
      <path class="cls-2" d="m427.66,425.95s-2.45-18.51,10.75-19.6c0,0,20.96,20.83-10.75,19.6Z"/>
      <g>
        <path class="cls-2" d="m221.8,128.24c-9.39,2.81-18.41,6.89-26.67,12.15.8.56,1.64,1.16,2.52,1.79,15.41,11.16,20.08,25.58,20.95,37.08,2.22-1.14,4.53-2.12,6.9-2.92,9.14-20.32,1.75-38.69-3.69-48.1Z"/>
        <path class="cls-2" d="m435.22,395.59c-2.12-5.94-6.07-28.18-6.07-28.18-14.7-21.24-69.16-28.04-69.16-28.04,13.61,11.44,9.8,14.43,9.8,14.43-9.26-11.71-43.02-17.97-43.02-17.97-3.27,5.45-1.36,50.64-1.36,50.64-8.44-10.89-7.09-41.09-7.09-41.09.03-.77-9.86-9.81-11-11.39-3.01-4.19-5.53-8-7.61-12.71-4.93-11.15-9.97-22.26-16.49-32.59-7.83-12.39-17.83-23.7-30.45-31.16-9.62-5.68-20.62-8.96-31.77-9.56-2.34-.13-22.2,3.17-22.74,2.36-10.3-15.37-9.34-35.48-.24-51.27-10.95-15.41-26.78-19.83-37.85-20.88-11.9,22.24-15.73,48.68-9.27,73.39.56,2.14,10.56,24.18,10.88,23.82-10.66,12-8.09,29.06-12.46,43.72-5.01,16.82-13.79,32.53-25.68,45.46-5.39,5.87-11.49,11.31-15.13,18.4-4.31,8.41-4.57,18.3-2.4,27.35.85,3.54,4.48,15.64,9.65,15.64h49.01c3.81-11.16-23.96-13.34-23.96-13.34-1.51-5.07,14.84-8.93,28.32-13.89,17.15-5.99,23.69-10.89,23.69-10.89,21.51-5.99,2.45-55.27,2.45-55.27,8.39,6.32,12.4,16.91,13.54,27.07.96,8.57,0,17.26-1.56,25.74,13.38.84,27.44-.88,37.84-10.33,18.63-16.95,37.57-11.71,37.57-11.71-20.66,1.12-31.46,19.29-49.26,26.52-11.78,4.78-25.49,3.03-37.15,8.12-11.07,4.83-19.12,15.96-20.23,27.99,38.09,0,76.17,0,114.26,0,4.08-5.17,19.33-8.98,19.33-8.98l-9.8,8.98h118.71c-3.72-21.4,12.01-28.68,16.69-30.35Zm-92.56-3.32c-14.16-15.97-8.71-43.52-8.71-43.52,31.58,3.68,35.76,19.01,35.76,19.01-24.32-5.45-27.05,24.5-27.05,24.5Zm47.19,24.69c-18.54-15.75-7.8-26.32-.91-27.05,9.63-1.01,21.6.91,21.6.91-11.25,2.18-20.69,26.14-20.69,26.14Z"/>
        <path class="cls-2" d="m255.17,175.93c1.06.35,2.11.75,3.15,1.19,1.26.54,2.49,1.14,3.71,1.78,26.46-9.15,32.76-33.78,34.21-43.33-7.76-4.29-17.03-7.3-26.14-9.17.17.87.35,1.77.53,2.72,4.3,23.08-6.67,38.51-15.46,46.81Z"/>
        <path class="cls-2" d="m304,144.07c-2.78,24.84-19.6,36.33-30.47,41.23,3.1,1.6,6.29,2.94,9.71,3.63,13.12,2.67,27.53-6.25,30.99-19.18,3.27-12.2-1.39-21.66-9.91-28.73-.09.97-.2,1.98-.32,3.05Z"/>
        <path class="cls-2" d="m204.38,190.24c.53-.59,1.07-1.18,1.62-1.75.69-.71,1.41-1.39,2.15-2.06-.03-20.94-13.46-34.86-20.57-40.75-3.11,2.39-6.08,4.95-8.89,7.7-4.72,4.63-8.95,9.71-12.66,15.13,19.98,1.1,32.17,13.16,38.34,21.72Z"/>
        <path class="cls-2" d="m237.7,173.85c1.41-.11,2.81-.14,4.22-.12,20.2-15.6,20.24-38.51,19.03-48.85-7.85-1-15.11-1.13-20.57-.5-3.09.36-6.16.86-9.2,1.49,13.45,18.48,10.69,36.65,6.52,47.98Z"/>
      </g>
    </g>
  </g>
</svg>