<?xml version="1.0" encoding="UTF-8"?>
<svg id="Layer_2" data-name="Layer 2" xmlns="http://www.w3.org/2000/svg" viewBox="0 0 216.8 97.75">
  <defs>
    <style>
      .cls-1, .cls-2 {
        fill: #3d190a;
      }

      .cls-3 {
        letter-spacing: -.05em;
      }

      .cls-4 {
        letter-spacing: -.03em;
      }

      .cls-5 {
        fill: #8a3418;
      }

      .cls-2 {
        font-family: HelveticaNowDisplay-Bold, 'Helvetica Now Display';
        font-size: 45.05px;
        font-weight: 700;
      }

      .cls-6 {
        fill: #f3a36c;
      }

      .cls-7 {
        fill: #fbeee7;
      }

      .cls-8 {
        fill: #e05d30;
      }

      .cls-9 {
        letter-spacing: -.08em;
      }
    </style>
  </defs>
  <g id="Layer_1-2" data-name="Layer 1">
    <g>
      <g>
        <path class="cls-1" d="m103.44,96.73s-.79-5.93,3.45-6.28c0,0,6.72,6.67-3.45,6.28Z"/>
        <g>
          <path class="cls-5" d="m37.49,1.36c-3.01.9-5.9,2.21-8.55,3.89.26.18.52.37.81.57,4.94,3.58,6.43,8.2,6.71,11.88.71-.36,1.45-.68,2.21-.93,2.93-6.51.56-12.39-1.18-15.41Z"/>
          <path class="cls-1" d="m105.86,87.01c-.68-1.9-1.94-9.03-1.94-9.03-4.71-6.8-22.16-8.98-22.16-8.98,4.36,3.66,3.14,4.62,3.14,4.62-2.97-3.75-13.78-5.76-13.78-5.76-1.05,1.74-.44,16.22-.44,16.22-2.7-3.49-2.27-13.17-2.27-13.17.01-.25-3.16-3.14-3.52-3.65-.96-1.34-1.77-2.56-2.44-4.07-1.58-3.57-3.19-7.13-5.28-10.44-2.51-3.97-5.71-7.59-9.76-9.98-3.08-1.82-6.61-2.87-10.18-3.06-.75-.04-7.11,1.02-7.28.76-3.3-4.92-2.99-11.37-.08-16.43-3.51-4.94-8.58-6.35-12.13-6.69-3.81,7.13-5.04,15.59-2.97,23.51.18.68,3.38,7.75,3.49,7.63-3.41,3.84-2.59,9.31-3.99,14.01-1.61,5.39-4.42,10.42-8.23,14.56-1.73,1.88-3.68,3.62-4.85,5.89-1.38,2.69-1.46,5.86-.77,8.76.27,1.13,1.44,5.01,3.09,5.01h15.7c1.22-3.58-7.68-4.27-7.68-4.27-.48-1.63,4.75-2.86,9.07-4.45,5.5-1.92,7.59-3.49,7.59-3.49,6.89-1.92.79-17.71.79-17.71,2.69,2.02,3.97,5.42,4.34,8.67.31,2.75,0,5.53-.5,8.25,4.29.27,8.79-.28,12.12-3.31,5.97-5.43,12.04-3.75,12.04-3.75-6.62.36-10.08,6.18-15.78,8.49-3.78,1.53-8.17.97-11.9,2.6-3.55,1.55-6.13,5.11-6.48,8.97,12.2,0,24.4,0,36.6,0,1.31-1.66,6.19-2.88,6.19-2.88l-3.14,2.88h38.03c-1.19-6.85,3.85-9.19,5.35-9.72Zm-29.65-1.06c-4.54-5.12-2.79-13.94-2.79-13.94,10.12,1.18,11.46,6.09,11.46,6.09-7.79-1.74-8.66,7.85-8.66,7.85Zm15.12,7.91c-5.94-5.05-2.5-8.43-.29-8.66,3.09-.32,6.92.29,6.92.29-3.61.7-6.63,8.37-6.63,8.37Z"/>
          <path class="cls-6" d="m48.18,16.64c.34.11.68.24,1.01.38.4.17.8.37,1.19.57,8.48-2.93,10.49-10.82,10.96-13.88-2.49-1.37-5.46-2.34-8.37-2.94.06.28.11.57.17.87,1.38,7.39-2.14,12.34-4.95,15Z"/>
          <path class="cls-7" d="m63.82,6.43c-.89,7.96-6.28,11.64-9.76,13.21.99.51,2.01.94,3.11,1.16,4.2.86,8.82-2,9.93-6.14,1.05-3.91-.45-6.94-3.18-9.2-.03.31-.06.63-.1.98Z"/>
          <path class="cls-1" d="m31.9,21.22c.17-.19.34-.38.52-.56.22-.23.45-.45.69-.66,0-6.71-4.31-11.17-6.59-13.05-.99.77-1.95,1.59-2.85,2.47-1.51,1.48-2.87,3.11-4.06,4.85,6.4.35,10.31,4.22,12.28,6.96Z"/>
          <path class="cls-8" d="m42.58,15.97c.45-.03.9-.05,1.35-.04,6.47-5,6.49-12.34,6.1-15.65-2.51-.32-4.84-.36-6.59-.16-.99.11-1.97.28-2.95.48,4.31,5.92,3.42,11.74,2.09,15.37Z"/>
        </g>
      </g>
      <text class="cls-2" transform="translate(64.91 59.99)"><tspan class="cls-3" x="0" y="0">R</tspan><tspan class="cls-9" x="27.84" y="0">A</tspan><tspan class="cls-4" x="56.49" y="0">CON</tspan></text>
      <g>
        <path class="cls-1" d="m120.14,97.03h-6.08v-32.07h6.08v32.07Z"/>
        <path class="cls-1" d="m138.2,97.75c-4.62,0-8.36-1.52-11.22-4.55-2.88-3.03-4.32-7.1-4.32-12.21s1.43-9.22,4.28-12.25c2.82-3,6.58-4.5,11.26-4.5,3.75,0,6.95,1.01,9.59,3.02,2.64,2.01,4.29,4.93,4.96,8.74h-6.17c-.54-2.1-1.54-3.7-3-4.8-1.46-1.1-3.25-1.64-5.38-1.64-2.85,0-5.1,1.01-6.73,3.04s-2.45,4.83-2.45,8.4.81,6.41,2.43,8.42c1.62,2.01,3.87,3.02,6.76,3.02,2.22,0,4.13-.66,5.72-1.98,1.59-1.32,2.55-3.15,2.88-5.5h6.08c-.39,4.08-1.98,7.24-4.78,9.46-2.76,2.22-6.07,3.33-9.91,3.33Z"/>
        <path class="cls-1" d="m169.96,97.75c-4.81,0-8.68-1.53-11.62-4.59-2.94-3.09-4.41-7.15-4.41-12.16s1.47-9.07,4.41-12.16c2.94-3.06,6.82-4.59,11.62-4.59s8.68,1.53,11.62,4.59c2.91,3.03,4.37,7.09,4.37,12.16s-1.46,9.13-4.37,12.16c-2.94,3.06-6.82,4.59-11.62,4.59Zm-9.68-16.76c0,3.51.88,6.29,2.66,8.33,1.77,2.04,4.11,3.06,7.03,3.06s5.3-1.02,7.07-3.06c1.74-2.01,2.61-4.79,2.61-8.33s-.87-6.32-2.61-8.33c-1.77-2.04-4.13-3.06-7.07-3.06s-5.26,1.02-7.03,3.06c-1.77,2.04-2.66,4.82-2.66,8.33Z"/>
        <path class="cls-1" d="m209.69,73.34v-8.38h5.86v32.07h-6.76l-8.92-14.28c-2.43-3.81-4.34-7.03-5.72-9.64.12,3.36.18,8.54.18,15.54v8.38h-5.86v-32.07h6.76l8.96,14.28c2.67,4.32,4.56,7.54,5.68,9.64-.12-4.47-.18-9.65-.18-15.54Z"/>
      </g>
    </g>
  </g>
</svg>